<?xml version="1.0" encoding="UTF-8" standalone="no"?>
<svg
   class="icon icon-tabler icon-tabler-backpack"
   width="24"
   height="24"
   viewBox="0 0 24 24"
   stroke-width="1.5"
   stroke="currentColor"
   fill="none"
   stroke-linecap="round"
   stroke-linejoin="round"
   version="1.1"
   id="svg5"
   sodipodi:docname="Inventory.svg"
   inkscape:version="1.3.2 (091e20e, 2023-11-25, custom)"
   xmlns:inkscape="http://www.inkscape.org/namespaces/inkscape"
   xmlns:sodipodi="http://sodipodi.sourceforge.net/DTD/sodipodi-0.dtd"
   xmlns="http://www.w3.org/2000/svg"
   xmlns:svg="http://www.w3.org/2000/svg">
  <defs
     id="defs5" />
  <sodipodi:namedview
     id="namedview5"
     pagecolor="#505050"
     bordercolor="#ffffff"
     borderopacity="1"
     inkscape:showpageshadow="0"
     inkscape:pageopacity="0"
     inkscape:pagecheckerboard="1"
     inkscape:deskcolor="#505050"
     inkscape:zoom="22.892582"
     inkscape:cx="9.6756233"
     inkscape:cy="13.519663"
     inkscape:window-width="1920"
     inkscape:window-height="991"
     inkscape:window-x="2391"
     inkscape:window-y="-9"
     inkscape:window-maximized="1"
     inkscape:current-layer="svg5" />
  <path
     stroke="none"
     d="M0 0h24v24H0z"
     fill="none"
     id="path1" />
  <path
     d="M5 18v-6a6 6 0 0 1 6 -6h2a6 6 0 0 1 6 6v6a3 3 0 0 1 -3 3h-8a3 3 0 0 1 -3 -3z"
     id="path2"
     style="stroke:#ffffff;stroke-opacity:1" />
  <path
     d="M10 6v-1a2 2 0 1 1 4 0v1"
     id="path3"
     style="stroke:#ffffff;stroke-opacity:1" />
  <path
     d="M9 21v-4a2 2 0 0 1 2 -2h2a2 2 0 0 1 2 2v4"
     id="path4"
     style="stroke:#ffffff;stroke-opacity:1" />
  <path
     d="M11 10h2"
     id="path5"
     style="stroke:#ffffff;stroke-opacity:1" />
</svg>
