<?xml version="1.0" encoding="UTF-8" standalone="no"?>
<svg
   class="icon icon-tabler icon-tabler-wood"
   width="24"
   height="24"
   viewBox="0 0 24 24"
   stroke-width="1.5"
   stroke="currentColor"
   fill="none"
   stroke-linecap="round"
   stroke-linejoin="round"
   version="1.1"
   id="svg5"
   sodipodi:docname="Material.svg"
   inkscape:version="1.3.2 (091e20e, 2023-11-25, custom)"
   xmlns:inkscape="http://www.inkscape.org/namespaces/inkscape"
   xmlns:sodipodi="http://sodipodi.sourceforge.net/DTD/sodipodi-0.dtd"
   xmlns="http://www.w3.org/2000/svg"
   xmlns:svg="http://www.w3.org/2000/svg">
  <defs
     id="defs5" />
  <sodipodi:namedview
     id="namedview5"
     pagecolor="#505050"
     bordercolor="#ffffff"
     borderopacity="1"
     inkscape:showpageshadow="0"
     inkscape:pageopacity="0"
     inkscape:pagecheckerboard="1"
     inkscape:deskcolor="#505050"
     inkscape:zoom="32.375"
     inkscape:cx="12"
     inkscape:cy="12"
     inkscape:window-width="1920"
     inkscape:window-height="991"
     inkscape:window-x="2391"
     inkscape:window-y="-9"
     inkscape:window-maximized="1"
     inkscape:current-layer="svg5" />
  <path
     stroke="none"
     d="M0 0h24v24H0z"
     fill="none"
     id="path1" />
  <path
     d="M12 5.5m-6 0a6 2.5 0 1 0 12 0a6 2.5 0 1 0 -12 0"
     id="path2"
     style="fill:none;fill-opacity:1;stroke:#f9f9f9;stroke-opacity:1" />
  <path
     d="M18 5.5v4.626a1.415 1.415 0 0 1 1.683 2.18l-.097 .108l-1.586 1.586v4c0 1.61 -2.54 2.925 -5.725 3l-.275 0c-3.314 0 -6 -1.343 -6 -3v-2l-1.586 -1.586a1.414 1.414 0 0 1 1.586 -2.287v-6.627"
     id="path3"
     style="fill:none;fill-opacity:1;stroke:#f9f9f9;stroke-opacity:1" />
  <path
     d="M10 12.5v1.5"
     id="path4"
     style="fill:none;fill-opacity:1;stroke:#f9f9f9;stroke-opacity:1" />
  <path
     d="M14 16v1"
     id="path5"
     style="fill:none;fill-opacity:1;stroke:#f9f9f9;stroke-opacity:1" />
</svg>
